<?xml version="1.0" encoding="UTF-8" standalone="no"?>
<svg
   width="15"
   height="15"
   viewBox="0 0 15 15"
   fill="none"
   version="1.1"
   id="svg4"
   sodipodi:docname="Star 3 hollow.svg"
   inkscape:version="1.2.2 (b0a8486541, 2022-12-01)"
   xmlns:inkscape="http://www.inkscape.org/namespaces/inkscape"
   xmlns:sodipodi="http://sodipodi.sourceforge.net/DTD/sodipodi-0.dtd"
   xmlns="http://www.w3.org/2000/svg"
   xmlns:svg="http://www.w3.org/2000/svg">
  <defs
     id="defs8" />
  <sodipodi:namedview
     id="namedview6"
     pagecolor="#ffffff"
     bordercolor="#000000"
     borderopacity="0.25"
     inkscape:showpageshadow="2"
     inkscape:pageopacity="0.0"
     inkscape:pagecheckerboard="0"
     inkscape:deskcolor="#d1d1d1"
     showgrid="false"
     inkscape:zoom="82.867294"
     inkscape:cx="7.4637408"
     inkscape:cy="7.693023"
     inkscape:window-width="2560"
     inkscape:window-height="1347"
     inkscape:window-x="1920"
     inkscape:window-y="26"
     inkscape:window-maximized="1"
     inkscape:current-layer="svg4" />
  <path
     id="path1078"
     d="m 7.4648438,0.77929688 c -0.056897,0 -0.1131723,0.001689 -0.1699219,0.005859 C 7.2381719,0.78932688 7.1813084,0.79634608 7.125,0.80468718 6.5619162,0.88809808 6.0270855,1.1792221 5.6699219,1.6796872 c -0.035716,0.050047 -0.069523,0.1039861 -0.1015625,0.1582031 -0.032039,0.054217 -0.061776,0.1095812 -0.089844,0.1679688 -0.056136,0.1167752 -0.1040925,0.2415426 -0.1425781,0.375 -0.017094,0.059277 -0.036971,0.1169456 -0.058594,0.1738281 -0.064868,0.1706474 -0.1485548,0.3306136 -0.25,0.4765625 -0.033815,0.04865 -0.070007,0.097022 -0.1074219,0.1425781 C 4.8076771,3.3104963 4.6795275,3.431427 4.5390625,3.5371094 4.3517758,3.6780192 4.1424252,3.7891907 3.9179688,3.8652344 3.7496264,3.9222671 3.5725632,3.9595653 3.390625,3.9746094 c -0.060646,0.00501 -0.1219013,0.00781 -0.1835938,0.00781 H 3.0996094 c -0.2771495,0 -0.5354874,0.044262 -0.7714844,0.1230469 -0.058999,0.019699 -0.1176274,0.04047 -0.1738281,0.064456 -0.1686021,0.071958 -0.32306,0.1635339 -0.4648438,0.2695312 -0.047261,0.035332 -0.094572,0.072721 -0.1386719,0.1113281 C 1.4184806,4.6666025 1.3014389,4.7967742 1.1992188,4.9375 1.1651458,4.984409 1.1321128,5.03091 1.1015628,5.0800781 1.0710128,5.1292461 1.0425608,5.1812477 1.0156258,5.2324219 0.9886901,5.2835959 0.964638,5.3357455 0.941407,5.3886719 0.8484831,5.6003774 0.7839302,5.8250974 0.753907,6.0546875 0.7388954,6.1694826 0.7325748,6.2841694 0.7343757,6.4003906 0.7361767,6.5166118 0.7462872,6.6343826 0.7656257,6.75 c 0.0676848,0.4046608 0.2463275,0.7993136 0.5488281,1.140625 0.086429,0.097518 0.181834,0.1895651 0.2890625,0.2773438 l 0.4375,0.3574218 c 0.093469,0.076515 0.1802181,0.1583882 0.2597656,0.2460938 0.039774,0.043853 0.077092,0.090403 0.1132813,0.1367187 0.036189,0.046316 0.070981,0.094022 0.1035156,0.1425781 0.06507,0.097111 0.1218379,0.1980023 0.171875,0.3027344 0.050037,0.1047321 0.092505,0.2116976 0.1269531,0.3222656 0.034448,0.1105681 0.061776,0.2252248 0.080078,0.3398438 0.018302,0.114619 0.027696,0.230771 0.029297,0.347656 0.0016,0.116885 -0.00387,0.234197 -0.019531,0.351563 -0.00783,0.05868 -0.019003,0.117312 -0.03125,0.175781 -0.012247,0.05847 -0.026234,0.115797 -0.042969,0.173828 l -0.2148437,0.742188 c -0.018484,0.06409 -0.034136,0.128293 -0.046875,0.191406 -0.012739,0.06311 -0.022073,0.125519 -0.029297,0.1875 -0.00722,0.06198 -0.011734,0.122896 -0.013672,0.183594 -0.00194,0.0607 -0.00117,0.122377 0.00195,0.18164 0.00936,0.177791 0.041059,0.347604 0.091797,0.509766 0.033825,0.108108 0.075075,0.212849 0.125,0.3125 0.024962,0.04983 0.053388,0.099 0.082031,0.146484 0.057287,0.09497 0.1207713,0.184834 0.1914062,0.269531 0.035318,0.04235 0.073018,0.08349 0.1113282,0.123047 0.038311,0.03956 0.078066,0.07667 0.1191406,0.113282 0.041075,0.03661 0.083344,0.07196 0.1269531,0.105468 0.087218,0.06702 0.1794097,0.127911 0.2753907,0.181641 0.04799,0.02687 0.096647,0.05286 0.1464843,0.07617 0.1495117,0.06995 0.3067442,0.12293 0.46875,0.158203 0.2160078,0.04703 0.4406355,0.06213 0.6660157,0.03906 0.11269,-0.01154 0.2256087,-0.03358 0.3378906,-0.06445 0.056141,-0.01544 0.1122738,-0.03224 0.1679687,-0.05273 0.055695,-0.0205 0.1109959,-0.0446 0.1660157,-0.07031 0.05502,-0.02571 0.1099472,-0.05486 0.1640624,-0.08594 0.1082305,-0.06215 0.2131695,-0.134238 0.3164063,-0.21875 0.050101,-0.04101 0.1016218,-0.07935 0.1542969,-0.115234 0.052675,-0.03589 0.1072031,-0.06885 0.1621094,-0.09961 0.1098124,-0.06152 0.223166,-0.113284 0.3398437,-0.154297 0.1166777,-0.04101 0.236625,-0.07129 0.3574219,-0.0918 0.060398,-0.01025 0.1207273,-0.01831 0.1816406,-0.02344 0.060913,-0.0051 0.1225088,-0.0078 0.1835938,-0.0078 0.4886795,0 0.9761485,0.164088 1.3769531,0.492188 0.2580935,0.211281 0.5356993,0.350548 0.8164062,0.427734 0.1684242,0.04631 0.3375484,0.07074 0.5058587,0.07422 0.0561,0.0012 0.112337,-6.09e-4 0.167969,-0.0039 0.278163,-0.01649 0.54964,-0.08655 0.798828,-0.203125 0.04984,-0.02332 0.09849,-0.04931 0.146485,-0.07617 0.143972,-0.0806 0.279119,-0.177281 0.402344,-0.287109 0.04107,-0.03661 0.08083,-0.07373 0.11914,-0.113282 0.07662,-0.07911 0.146747,-0.163919 0.210938,-0.253906 0.03209,-0.04499 0.06315,-0.09119 0.0918,-0.138672 0.286435,-0.474857 0.393828,-1.071922 0.208985,-1.71289 l -0.212891,-0.742188 c -0.01674,-0.05803 -0.03072,-0.115359 -0.04297,-0.173828 -0.01225,-0.05847 -0.02342,-0.117098 -0.03125,-0.175781 -0.0078,-0.05868 -0.0141,-0.117107 -0.01758,-0.175782 -0.0035,-0.05867 -0.0047,-0.117338 -0.0039,-0.175781 8e-4,-0.05844 0.0048,-0.117793 0.0098,-0.175781 0.01002,-0.115975 0.02824,-0.2309334 0.05469,-0.34375 0.02644,-0.1128166 0.0612,-0.2241581 0.103516,-0.3320312 0.02116,-0.053937 0.04334,-0.1058371 0.06836,-0.1582032 0.02502,-0.052366 0.05322,-0.1037244 0.08203,-0.1542968 0.02881,-0.050573 0.05926,-0.099882 0.0918,-0.1484376 0.0976,-0.1456669 0.211938,-0.2827499 0.341797,-0.40625 0.04329,-0.041167 0.08803,-0.080883 0.134766,-0.1191406 L 13.324219,8.1679688 C 15.039917,6.7635202 14.047276,3.9824219 11.830078,3.9824219 h -0.107422 c -0.06169,0 -0.122946,-0.0028 -0.183594,-0.00781 -0.121294,-0.010029 -0.241707,-0.029554 -0.357421,-0.058594 -0.05786,-0.01452 -0.113808,-0.03177 -0.169922,-0.050781 -0.05612,-0.019011 -0.111877,-0.039173 -0.166016,-0.0625 -0.162417,-0.069981 -0.314614,-0.1599426 -0.455078,-0.265625 -0.04682,-0.035227 -0.0928,-0.072483 -0.136719,-0.1113282 C 10.034318,3.2315563 9.8522475,2.9942204 9.7226562,2.7226562 9.696738,2.6683434 9.6720127,2.61157 9.6503906,2.5546875 9.6287686,2.497805 9.6108437,2.4401368 9.59375,2.3808594 9.2858603,1.3132004 8.3751916,0.77929688 7.4648438,0.77929688 Z m 0.05127,1.29008732 c 0.7091977,0.027779 1.5117076,2.140063 1.9579143,2.5528485 0.4462067,0.4127854 3.0578464,0.6019482 3.3605434,1.3355715 0.302697,0.7336233 -1.853644,2.4423795 -2.124062,3.2613674 -0.427352,1.2942754 0.626823,3.5256424 0.09737,3.9044784 C 10.278418,13.502487 8.6147238,11.974343 7.5411462,11.937488 6.4675686,11.900632 4.9484943,13.612941 4.3597341,12.993343 3.770974,12.373745 4.5492706,10.160753 4.1924873,9.0300887 3.835704,7.899424 2.21324,6.7897814 2.2485905,6.0188156 2.283941,5.2478498 5.1717154,5.0223863 5.5751534,4.6255556 5.9785914,4.2287248 6.8069156,2.0416053 7.5161133,2.0693842 Z"
     style="fill:#db271b;fill-opacity:1"
     sodipodi:nodetypes="sssssssssssssssssssssssssssccsssssssssccsssssssssssssssssssssssssscsssssssscccsssssssssssccsssssssssscszzzszzzzzzz" />
</svg>
